<svg width="300" height="300" xmlns="http://www.w3.org/2000/svg">
 <!-- Created with Method Draw - http://github.com/duopixel/Method-Draw/ -->
 <defs>
  <linearGradient spreadMethod="pad" y2="0.04688" x2="0.86328" y1="0.05078" x1="0.16406" id="svg_3">
   <stop offset="0" stop-color="#999999"/>
   <stop offset="1" stop-color="#666666"/>
  </linearGradient>
 </defs>
 <g>
  <title>background</title>
  <rect fill="none" id="canvas_background" height="302" width="302" y="-1" x="-1"/>
  <g display="none" overflow="visible" y="0" x="0" height="100%" width="100%" id="canvasGrid">
   <rect fill="url(#gridpattern)" stroke-width="0" y="0" x="0" height="100%" width="100%"/>
  </g>
 </g>
 <g>
  <title>Layer 1</title>
  <path stroke="#000" transform="rotate(-0.16702231764793396 149.42834472655736,149.5183105468769) " id="svg_2" d="m150.14179,27.95425c-2.91159,0 -5.50201,1.04297 -7.68764,2.93484c-2.18379,1.89031 -3.9901,4.59897 -5.4932,7.98179c-3.00577,6.7647 -4.85474,16.26757 -5.86611,27.64813c-1.00939,11.35867 -1.17949,24.58479 -0.76014,38.74308c-35.9653,12.87515 -108.90964,39.45888 -114.76933,45.39447c-7.80151,7.90256 -5.28085,16.95933 -2.13705,22.97159l119.9183,-21.29847c2.5348,27.75554 6.13893,55.24595 9.27963,76.78679c-11.72728,2.99502 -33.61831,8.90881 -38.13689,12.57603c-6.22473,5.0519 -6.22468,21.3669 -6.22468,21.3669l49.08032,-3.48338c1.15595,7.03258 1.87886,11.13604 1.87886,11.13604l0.07172,0.37029l0.38726,0l0.90356,0l0.38725,0l0.07172,-0.37029c0,0 0.72154,-4.10354 1.87885,-11.13604l49.09467,3.48338c0,0 0.00006,-16.315 -6.22469,-21.3669c-4.52027,-3.66864 -26.42728,-9.59584 -38.15124,-12.58983c3.13422,-21.47473 6.73198,-48.85995 9.2653,-76.52607l118.51277,21.05154c3.14377,-6.01226 5.67883,-15.06903 -2.12269,-22.97159c-5.7872,-5.86212 -76.96892,-31.85459 -113.37811,-44.9008c0.43502,-14.3418 0.27512,-27.74816 -0.74582,-39.23675l0,-0.02743c-1.01189,-11.36801 -2.86282,-20.86162 -5.86609,-27.6207c-1.50267,-3.38188 -3.29428,-6.09082 -5.47885,-7.98179c-2.18566,-1.89186 -4.77604,-2.93484 -7.68762,-2.93484l-0.00006,0.00001z" stroke-opacity="null" stroke-width="1.5" fill="url(#svg_3)"/>
 </g>
</svg>